<svg width="96" height="19" viewBox="0 0 96 19" fill="none" xmlns="http://www.w3.org/2000/svg">
<path d="M17.3516 16.4648C17.3516 16.6836 17.3125 16.8867 17.2344 17.0742C17.1562 17.2617 17.0469 17.4258 16.9062 17.5664C16.7734 17.6992 16.6133 17.8047 16.4258 17.8828C16.2383 17.9609 16.0352 18 15.8164 18H4.82422C4.54297 18 4.23828 17.9688 3.91016 17.9062C3.58984 17.8359 3.26953 17.7305 2.94922 17.5898C2.63672 17.4492 2.33594 17.2695 2.04688 17.0508C1.75781 16.8242 1.5 16.5547 1.27344 16.2422C1.05469 15.9219 0.878906 15.5547 0.746094 15.1406C0.613281 14.7188 0.546875 14.2461 0.546875 13.7227V5.47266C0.546875 5.19141 0.578125 4.89062 0.640625 4.57031C0.710938 4.24219 0.816406 3.92188 0.957031 3.60938C1.09766 3.28906 1.28125 2.98438 1.50781 2.69531C1.73438 2.40625 2.00391 2.15234 2.31641 1.93359C2.63672 1.70703 3.00391 1.52734 3.41797 1.39453C3.83203 1.26172 4.30078 1.19531 4.82422 1.19531H17.2109V4.24219H4.82422C4.42578 4.24219 4.12109 4.34766 3.91016 4.55859C3.69922 4.76953 3.59375 5.08203 3.59375 5.49609V13.7227C3.59375 14.1133 3.69922 14.418 3.91016 14.6367C4.12891 14.8477 4.43359 14.9531 4.82422 14.9531H14.3047V11.1328H6.19531V8.0625H15.8164C16.0352 8.0625 16.2383 8.10547 16.4258 8.19141C16.6133 8.26953 16.7734 8.37891 16.9062 8.51953C17.0469 8.66016 17.1562 8.82422 17.2344 9.01172C17.3125 9.19141 17.3516 9.38672 17.3516 9.59766V16.4648ZM38.1641 11.2031C38.1641 12.2266 37.9883 13.168 37.6367 14.0273C37.2852 14.8867 36.7969 15.6289 36.1719 16.2539C35.5469 16.8789 34.8047 17.3672 33.9453 17.7188C33.0938 18.0625 32.1641 18.2344 31.1562 18.2344H27.0312C26.0234 18.2344 25.0898 18.0625 24.2305 17.7188C23.3711 17.3672 22.6289 16.8789 22.0039 16.2539C21.3789 15.6289 20.8867 14.8867 20.5273 14.0273C20.1758 13.168 20 12.2266 20 11.2031V7.99219C20 6.97656 20.1758 6.03906 20.5273 5.17969C20.8867 4.3125 21.3789 3.57031 22.0039 2.95312C22.6289 2.32812 23.3711 1.83984 24.2305 1.48828C25.0898 1.13672 26.0234 0.960938 27.0312 0.960938H31.1562C32.1641 0.960938 33.0938 1.13672 33.9453 1.48828C34.8047 1.83984 35.5469 2.32812 36.1719 2.95312C36.7969 3.57031 37.2852 4.3125 37.6367 5.17969C37.9883 6.03906 38.1641 6.97656 38.1641 7.99219V11.2031ZM35.1172 7.99219C35.1172 7.39062 35.0195 6.84766 34.8242 6.36328C34.6367 5.87109 34.3672 5.45312 34.0156 5.10938C33.6719 4.75781 33.2539 4.48828 32.7617 4.30078C32.2773 4.10547 31.7422 4.00781 31.1562 4.00781H27.0312C26.4375 4.00781 25.8945 4.10547 25.4023 4.30078C24.918 4.48828 24.5 4.75781 24.1484 5.10938C23.7969 5.45312 23.5234 5.87109 23.3281 6.36328C23.1406 6.84766 23.0469 7.39062 23.0469 7.99219V11.2031C23.0469 11.8047 23.1406 12.3516 23.3281 12.8438C23.5234 13.3281 23.7969 13.7461 24.1484 14.0977C24.5 14.4414 24.918 14.7109 25.4023 14.9062C25.8945 15.0938 26.4375 15.1875 27.0312 15.1875H31.1328C31.7266 15.1875 32.2656 15.0938 32.75 14.9062C33.2422 14.7109 33.6641 14.4414 34.0156 14.0977C34.3672 13.7461 34.6367 13.3281 34.8242 12.8438C35.0195 12.3516 35.1172 11.8047 35.1172 11.2031V7.99219ZM57.9219 8.22656C57.9219 8.92188 57.8359 9.54297 57.6641 10.0898C57.4922 10.6367 57.2578 11.1211 56.9609 11.543C56.6719 11.957 56.3359 12.3125 55.9531 12.6094C55.5703 12.9062 55.168 13.1484 54.7461 13.3359C54.332 13.5234 53.9102 13.6602 53.4805 13.7461C53.0586 13.832 52.6602 13.875 52.2852 13.875H45.3945V10.8281H52.2852C52.6758 10.7969 53.0273 10.7188 53.3398 10.5938C53.6602 10.4609 53.9336 10.2852 54.1602 10.0664C54.3867 9.84766 54.5625 9.58594 54.6875 9.28125C54.8125 8.96875 54.875 8.61719 54.875 8.22656V6.84375C54.8359 6.46094 54.7539 6.10938 54.6289 5.78906C54.5039 5.46875 54.332 5.19531 54.1133 4.96875C53.9023 4.74219 53.6445 4.56641 53.3398 4.44141C53.0352 4.30859 52.6836 4.24219 52.2852 4.24219H45.418C45.0117 4.24219 44.7031 4.34766 44.4922 4.55859C44.2812 4.76953 44.1758 5.07422 44.1758 5.47266V18H41.1289V5.47266C41.1289 4.69141 41.2695 4.02734 41.5508 3.48047C41.8398 2.93359 42.1953 2.49219 42.6172 2.15625C43.0469 1.82031 43.5117 1.57813 44.0117 1.42969C44.5117 1.27344 44.9727 1.19531 45.3945 1.19531H52.2852C52.9727 1.19531 53.5898 1.28516 54.1367 1.46484C54.6836 1.63672 55.1641 1.87109 55.5781 2.16797C56 2.45703 56.3555 2.79297 56.6445 3.17578C56.9414 3.55859 57.1836 3.96094 57.3711 4.38281C57.5664 4.79688 57.707 5.21875 57.793 5.64844C57.8789 6.07031 57.9219 6.46875 57.9219 6.84375V8.22656ZM63.6055 18H60.5586V1.19531H63.6055V18ZM69.3711 16.4648C69.3711 16.6758 69.3281 16.875 69.2422 17.0625C69.1641 17.2422 69.0547 17.4023 68.9141 17.543C68.7812 17.6758 68.6211 17.7812 68.4336 17.8594C68.2539 17.9375 68.0625 17.9766 67.8594 17.9766C67.6484 17.9766 67.4492 17.9375 67.2617 17.8594C67.082 17.7812 66.9219 17.6758 66.7812 17.543C66.6484 17.4023 66.543 17.2422 66.4648 17.0625C66.3867 16.875 66.3477 16.6758 66.3477 16.4648C66.3477 16.2617 66.3867 16.0703 66.4648 15.8906C66.543 15.7031 66.6484 15.543 66.7812 15.4102C66.9219 15.2695 67.082 15.1602 67.2617 15.082C67.4492 14.9961 67.6484 14.9531 67.8594 14.9531C68.0625 14.9531 68.2539 14.9961 68.4336 15.082C68.6211 15.1602 68.7812 15.2695 68.9141 15.4102C69.0547 15.543 69.1641 15.7031 69.2422 15.8906C69.3281 16.0703 69.3711 16.2617 69.3711 16.4648ZM88.5781 18H85.5312V13.875H74.8203V18H71.7734V9.59766C71.7734 8.37109 71.9844 7.24219 72.4062 6.21094C72.8281 5.17969 73.4141 4.29297 74.1641 3.55078C74.9141 2.80859 75.8008 2.23047 76.8242 1.81641C77.8477 1.40234 78.9648 1.19531 80.1758 1.19531H87.043C87.2539 1.19531 87.4531 1.23437 87.6406 1.3125C87.8281 1.39063 87.9922 1.5 88.1328 1.64062C88.2734 1.78125 88.3828 1.94531 88.4609 2.13281C88.5391 2.32031 88.5781 2.51953 88.5781 2.73047V18ZM74.8203 10.8281H85.5312V4.24219H80.1758C80.082 4.24219 79.8828 4.25781 79.5781 4.28906C79.2812 4.3125 78.9336 4.37891 78.5352 4.48828C78.1445 4.59766 77.7305 4.76562 77.293 4.99219C76.8555 5.21875 76.4531 5.53125 76.0859 5.92969C75.7188 6.32812 75.4141 6.82812 75.1719 7.42969C74.9375 8.02344 74.8203 8.74609 74.8203 9.59766V10.8281ZM95.1992 18H92.1523V1.19531H95.1992V18Z" fill="#FF0000"/>
</svg>
